<?xml version="1.0" standalone="no"?>
<!DOCTYPE svg PUBLIC "-//W3C//DTD SVG 20010904//EN"
 "http://www.w3.org/TR/2001/REC-SVG-20010904/DTD/svg10.dtd">
<svg version="1.0" xmlns="http://www.w3.org/2000/svg"
 width="466.000000pt" height="659.000000pt" viewBox="0 0 466.000000 659.000000"
 preserveAspectRatio="xMidYMid meet">

<g transform="translate(0.000000,659.000000) scale(0.100000,-0.100000)"
fill="#000000" stroke="none">
<path d="M2838 5275 c-21 -28 -22 -35 -5 -35 16 0 42 -44 51 -85 l6 -30 -14
25 c-8 14 -33 36 -56 49 -30 17 -38 26 -29 32 7 4 10 11 7 14 -10 10 -28 -4
-28 -21 0 -8 -7 -15 -15 -15 -18 -2 -21 -2 -58 -12 -17 -5 -34 -4 -42 3 -8 7
-20 7 -36 1 l-24 -10 25 -1 25 -2 -28 -10 c-25 -9 -27 -12 -14 -27 8 -9 17
-34 20 -56 l7 -40 -16 40 c-22 59 -51 78 -94 63 -8 -3 -36 -13 -61 -22 -65
-23 -98 -55 -106 -99 -5 -34 -2 -41 41 -85 47 -47 47 -47 112 -46 36 0 69 5
72 11 4 6 22 10 39 11 24 0 30 -2 22 -11 -21 -25 -108 -171 -104 -175 4 -4
-105 -134 -156 -186 -16 -15 -26 -33 -22 -39 3 -5 1 -7 -5 -4 -5 4 -24 -12
-41 -35 -18 -24 -27 -44 -21 -46 5 -2 10 -27 11 -55 0 -45 2 -49 10 -27 10 26
66 76 75 68 7 -7 -7 -39 -15 -34 -14 9 -42 -23 -44 -50 -2 -25 2 -29 26 -32
15 -2 27 -8 27 -14 0 -6 -10 -8 -24 -4 -27 7 -43 -8 -28 -27 10 -12 13 -30 14
-84 1 -24 7 -33 25 -38 13 -3 23 -10 23 -15 0 -19 117 -128 154 -144 22 -9 41
-15 43 -12 2 2 -1 23 -6 47 l-9 44 21 -30 c66 -92 193 -184 301 -219 18 -6 18
-7 2 -25 -15 -16 -17 -33 -13 -100 3 -44 10 -95 16 -113 44 -142 51 -176 51
-233 0 -63 -2 -67 -41 -110 -55 -60 -156 -127 -188 -124 -69 4 -80 0 -108 -42
-31 -47 -25 -56 42 -57 54 -1 80 22 50 44 -10 8 -14 14 -8 14 16 0 36 -28 28
-40 -11 -17 73 -12 87 6 23 28 172 170 228 218 30 26 58 52 62 59 4 7 -2 47
-13 88 -24 90 -21 150 12 185 22 24 49 32 49 15 0 -5 36 -45 80 -88 78 -77 80
-80 80 -127 0 -51 -20 -85 -108 -177 -38 -41 -84 -159 -77 -196 3 -13 7 -34
10 -48 7 -32 26 -32 64 1 l31 26 0 -221 0 -221 165 0 165 0 0 35 0 35 -125 0
-125 0 0 190 0 190 -38 0 c-37 0 -38 1 -40 39 -2 25 2 40 11 44 8 3 16 25 19
52 6 51 36 98 125 202 58 66 61 77 37 111 -13 18 -19 21 -30 11 -17 -14 -19 2
-1 20 10 11 10 13 0 7 -8 -4 -13 -1 -13 8 0 9 5 16 10 16 6 0 10 5 10 11 0 5
-4 8 -9 5 -14 -9 -20 32 -10 67 10 35 3 71 -12 61 -12 -7 -8 16 6 32 7 9 12 9
18 0 6 -8 10 -7 14 3 8 19 53 -89 47 -111 -7 -24 13 -23 25 0 13 25 2 65 -15
58 -8 -3 -14 -1 -14 3 0 5 7 12 16 15 15 6 15 8 1 24 -22 25 -19 68 4 69 12 1
17 -3 13 -10 -5 -9 -3 -8 6 0 15 14 18 31 22 111 1 28 5 52 9 52 10 0 20 -30
13 -41 -11 -18 -16 -91 -6 -85 12 7 26 -10 41 -49 l11 -30 -5 33 c-6 41 4 35
43 -23 16 -24 32 -42 36 -38 3 3 6 1 6 -6 0 -7 4 -10 8 -7 5 3 21 -26 35 -63
15 -38 43 -95 62 -126 19 -32 40 -74 46 -93 17 -51 6 -162 -20 -213 -30 -56
-22 -94 27 -142 45 -44 75 -43 66 2 -3 14 2 46 11 71 10 25 25 74 35 110 12
46 19 59 23 45 4 -11 4 -1 2 23 -3 25 -1 42 5 42 5 0 10 -4 10 -8 0 -5 6 -17
14 -27 12 -17 15 -18 30 -3 15 15 13 22 -25 90 -23 40 -50 84 -61 97 -26 33
-13 40 20 10 53 -48 67 -53 26 -8 -85 92 -143 175 -97 138 15 -12 16 -12 8 1
-4 8 -15 23 -23 33 -8 9 -12 20 -8 24 4 4 11 1 16 -7 6 -9 10 -10 10 -3 0 6
-4 15 -10 18 -5 3 -10 10 -10 16 0 5 17 -1 38 -14 20 -13 48 -27 62 -31 23 -6
23 -6 5 5 -39 23 -106 95 -146 156 -53 81 -128 132 -203 140 -60 6 -110 -2
-101 -17 3 -6 3 -10 -2 -10 -4 0 -23 23 -42 50 -19 28 -38 50 -44 50 -5 0 -4
6 2 14 6 7 8 21 5 31 -4 9 -7 26 -8 38 -1 21 -26 38 -26 17 0 -6 5 -8 12 -4 8
5 9 2 3 -12 -4 -10 -7 -30 -7 -44 l1 -25 -10 23 c-5 13 -7 28 -3 33 3 5 0 9
-5 9 -6 0 -11 -9 -11 -20 0 -23 -4 -24 -31 -10 -16 9 -19 7 -19 -9 0 -11 -6
-32 -12 -47 -9 -20 -10 -28 -2 -31 6 -2 25 -16 43 -32 27 -25 30 -30 16 -41
-8 -7 -15 -20 -16 -29 0 -11 -2 -12 -6 -3 -7 18 -33 -4 -33 -29 0 -10 -5 -21
-10 -24 -6 -4 -8 -11 -5 -16 4 -5 1 -9 -4 -9 -15 0 -14 1 11 57 41 89 40 87
24 74 -8 -7 -21 -9 -27 -5 -7 4 -17 0 -23 -8 -11 -14 -46 -32 -46 -23 0 3 10
15 22 27 14 14 18 23 10 26 -7 2 -12 13 -12 25 1 22 1 22 17 2 14 -18 15 -18
9 -2 -4 12 2 31 15 49 l22 30 -28 -14 c-21 -12 -33 -12 -51 -4 -26 12 -30 21
-14 31 15 9 12 37 -2 30 -7 -4 -3 2 10 13 27 25 29 52 3 52 -11 0 -23 5 -27
12 -4 7 -3 8 4 4 7 -4 12 -2 12 3 0 16 -20 13 -26 -4 -9 -23 -22 -8 -17 19 4
20 0 25 -26 31 -18 4 -31 13 -31 22 0 9 -6 13 -14 10 -8 -3 -22 3 -32 14 -17
19 -17 20 2 13 15 -6 17 -4 7 6 -10 11 -15 11 -28 0 -22 -18 -27 -8 -14 29 22
63 -5 163 -59 222 -13 13 -27 41 -33 64 -6 22 -14 53 -19 69 -5 16 -7 32 -5
36 19 31 27 285 10 309 -7 11 -7 13 3 7 8 -5 12 -1 12 13 0 11 -8 25 -17 30
-10 6 -12 11 -5 11 15 0 16 30 1 30 -5 0 -7 -4 -4 -10 9 -15 -4 -12 -21 5 -9
8 -12 16 -7 16 4 1 15 2 23 3 8 0 16 13 18 27 2 16 12 31 28 37 29 14 64 68
64 100 0 23 0 23 -38 -7 -44 -36 -93 -49 -109 -29 -5 7 -13 25 -17 41 -8 33
-16 34 -38 2z m-54 -130 c-4 -8 -12 -15 -20 -15 -20 0 -17 18 4 23 9 3 18 5
19 6 1 0 0 -6 -3 -14z m-233 -12 c13 -16 12 -17 -3 -4 -17 13 -22 21 -14 21 2
0 10 -8 17 -17z m257 -20 c-10 -2 -26 -2 -35 0 -10 3 -2 5 17 5 19 0 27 -2 18
-5z m-337 -55 c-11 -10 -13 -10 -7 0 4 6 2 12 -4 12 -6 0 -8 5 -4 11 4 8 9 8
17 0 8 -8 7 -14 -2 -23z m133 8 c3 -13 9 -31 12 -40 3 -9 1 -16 -5 -16 -6 0
-11 7 -11 16 0 9 -5 12 -12 8 -10 -6 -10 -4 0 8 9 11 10 18 2 23 -12 8 -13 25
-1 25 5 0 12 -11 15 -24z m169 -21 c-3 -9 -8 -14 -10 -11 -3 3 -2 9 2 15 9 16
15 13 8 -4z m-129 -11 c3 -8 2 -12 -4 -9 -6 3 -10 10 -10 16 0 14 7 11 14 -7z
m286 -39 c0 -5 -5 -3 -10 5 -5 8 -10 20 -10 25 0 6 5 3 10 -5 5 -8 10 -19 10
-25z m-165 16 c-3 -5 -1 -12 5 -16 12 -8 -15 -65 -31 -65 -8 0 -7 5 1 15 7 8
9 15 4 15 -5 0 0 7 10 15 23 18 18 19 -21 5 l-28 -11 30 25 c33 27 39 31 30
17z m-265 -31 c0 -5 -4 -10 -10 -10 -5 0 -10 5 -10 10 0 6 5 10 10 10 6 0 10
-4 10 -10z m-41 -22 c-8 -14 -14 -18 -17 -10 -2 6 -8 10 -13 6 -5 -3 -9 -1 -9
5 0 5 10 12 23 14 12 2 23 5 25 6 1 0 -3 -9 -9 -21z m478 -20 c-3 -8 -6 -5 -6
6 -1 11 2 17 5 13 3 -3 4 -12 1 -19z m-216 -45 c11 -12 8 -12 -17 -2 -41 18
-50 27 -20 22 14 -3 31 -12 37 -20z m200 -15 c6 -24 14 -52 19 -63 10 -26 -16
-53 -33 -35 -9 9 -9 11 2 8 8 -2 16 6 18 17 3 15 2 17 -5 6 -8 -10 -11 -6 -17
18 -7 33 -25 52 -25 27 0 -24 -22 -31 -37 -11 -7 11 -13 28 -13 39 1 15 5 11
16 -14 15 -34 16 -34 25 -12 11 30 25 28 37 -5 6 -17 11 -21 11 -11 1 9 -4 29
-9 44 -10 25 -12 26 -29 10 -23 -21 -31 -20 -31 2 0 13 2 14 9 4 7 -11 9 -11
14 2 12 30 36 17 48 -26z m26 0 c-3 -7 -5 -2 -5 12 0 14 2 19 5 13 2 -7 2 -19
0 -25z m-252 -6 c-3 -3 -11 0 -18 7 -9 10 -8 11 6 5 10 -3 15 -9 12 -12z m121
-40 c1 -15 -1 -21 -3 -14 -3 6 -9 12 -14 12 -6 0 -7 -4 -4 -10 3 -5 1 -10 -4
-10 -17 0 -9 46 9 47 10 1 15 -8 16 -25z m-86 3 c-17 -20 6 -51 25 -35 9 8 15
8 20 0 3 -5 1 -10 -6 -10 -6 0 -20 -10 -30 -22 -11 -11 -19 -16 -19 -9 0 7 -5
9 -12 5 -7 -4 -4 3 7 16 l20 23 -22 -5 c-13 -4 -23 -2 -23 3 0 18 25 49 39 49
11 0 11 -3 1 -15z m125 -31 c9 -15 12 -23 6 -20 -11 7 -35 46 -28 46 3 0 12
-12 22 -26z m-202 -49 c-4 -12 6 -15 55 -15 35 0 64 5 68 12 4 7 3 8 -4 4 -7
-4 -12 -2 -12 3 0 6 11 10 24 9 14 -1 22 -6 20 -10 -3 -4 3 -9 13 -9 10 -1 5
-5 -12 -9 -18 -4 -22 -8 -11 -9 10 0 34 -10 52 -22 19 -11 38 -18 43 -15 5 3
14 -1 21 -9 10 -12 9 -15 -8 -15 -12 0 -24 5 -27 11 -4 6 -13 8 -21 5 -8 -3
-14 -1 -14 4 0 29 -132 47 -207 29 -39 -10 -47 -9 -61 6 -16 16 -16 17 1 8 11
-5 31 -7 45 -4 26 5 26 5 -6 11 -33 5 -45 21 -20 28 9 2 8 0 -2 -7 -12 -9 -10
-11 11 -11 15 0 29 7 33 16 3 8 10 13 15 9 6 -3 8 -12 4 -20z m287 -180 c-7
-8 -18 -15 -26 -15 -7 0 -41 -18 -75 -40 -34 -22 -69 -40 -78 -40 -25 -1 -65
-26 -53 -34 6 -4 8 -14 5 -23 -4 -10 -2 -14 5 -9 6 3 13 2 17 -4 3 -5 -6 -12
-21 -16 -22 -6 -32 -2 -52 22 -31 35 -73 45 -65 14 3 -12 0 -20 -7 -20 -10 0
-10 -3 0 -15 7 -9 11 -17 9 -18 -2 -2 -16 -11 -31 -20 -27 -17 -28 -17 -28 0
0 10 7 27 15 37 20 26 19 37 -2 30 -16 -5 -16 -4 1 10 18 15 18 15 -1 13 -14
-1 -20 -10 -22 -36 -1 -19 -4 -37 -7 -40 -9 -9 -34 -9 -28 0 3 5 -4 9 -15 9
-17 0 -21 6 -21 30 0 30 -21 42 -35 20 -3 -5 -1 -10 5 -10 6 0 8 -5 5 -10 -4
-6 -10 -8 -15 -5 -5 3 -11 1 -14 -4 -3 -5 2 -12 11 -16 16 -5 15 -8 -7 -25
-24 -18 -40 -18 -40 1 0 6 5 7 10 4 6 -3 10 3 10 14 0 11 5 23 11 26 6 4 8 13
5 20 -5 13 10 22 54 32 17 5 172 5 186 1 18 -5 143 44 190 75 40 25 79 45 113
56 2 0 -2 -6 -9 -14z m37 -79 c-4 -10 -1 -13 10 -9 8 3 19 0 24 -8 15 -23 10
-34 -6 -13 -9 12 -14 14 -15 6 0 -8 -7 -11 -18 -8 -13 5 -22 -1 -30 -19 -6
-14 -17 -25 -23 -25 -15 0 -9 13 26 54 32 39 40 44 32 22z m-587 -10 c0 -3 -4
-8 -10 -11 -5 -3 -10 -1 -10 4 0 6 5 11 10 11 6 0 10 -2 10 -4z m255 -74 c7
-28 -7 -48 -26 -37 -9 6 -8 11 5 20 14 11 15 13 1 19 -19 7 -20 23 -1 23 8 0
17 -11 21 -25z m405 -61 c0 -34 -3 -42 -15 -37 -9 3 -15 0 -15 -9 0 -8 -6 -15
-13 -15 -19 0 -36 20 -31 35 6 16 -23 28 -32 13 -4 -7 -3 -8 5 -4 6 4 11 4 10
-1 -5 -27 6 -41 50 -61 l50 -22 -16 -37 c-14 -34 -14 -38 3 -50 15 -11 20 -10
34 2 16 14 19 13 34 -10 9 -14 25 -25 36 -25 21 0 27 -15 10 -25 -6 -4 -7 -11
-4 -17 4 -6 10 -5 16 3 6 9 7 5 2 -12 -6 -30 11 -48 29 -30 6 6 15 11 19 11 4
0 -1 -9 -12 -20 -12 -12 -18 -25 -15 -30 8 -12 -13 -23 -27 -13 -13 8 -33 13
-55 15 -7 1 -10 5 -7 9 2 5 11 6 18 3 8 -3 17 2 20 13 8 26 7 38 -3 38 -14 0
-25 13 -28 37 -4 26 -10 34 -19 25 -4 -4 -1 -13 6 -22 7 -8 9 -15 6 -15 -4 0
-2 -10 5 -22 8 -17 4 -15 -15 7 -17 20 -24 23 -19 11 4 -13 3 -17 -5 -12 -11
6 -17 -5 -13 -26 0 -5 -3 -8 -9 -8 -5 0 -10 -4 -10 -10 0 -5 6 -8 13 -7 6 2 2
-1 -10 -7 -13 -6 -21 -17 -20 -29 1 -11 -10 -28 -26 -40 -24 -19 -29 -20 -37
-7 -6 8 -8 27 -6 42 4 29 -8 38 -47 34 -18 -2 -24 1 -20 10 6 17 20 18 26 2 3
-7 6 -5 6 6 1 18 2 18 20 2 14 -13 21 -14 27 -5 4 8 3 10 -4 5 -7 -4 -12 -3
-12 3 0 5 -3 18 -6 28 -6 16 -5 16 13 -3 14 -14 19 -29 16 -51 -7 -45 22 -52
41 -10 36 78 44 104 32 104 -36 -1 -48 4 -42 18 3 8 1 15 -4 15 -6 0 -10 7
-10 15 0 8 -5 15 -11 15 -5 0 -8 4 -4 9 3 6 -3 15 -14 20 -29 16 -33 14 -20
-10 7 -13 7 -19 1 -15 -6 3 -13 -3 -17 -14 -4 -12 -11 -18 -18 -14 -8 5 -8 2
1 -7 17 -18 15 -30 -5 -22 -10 4 -14 2 -10 -4 4 -6 23 -11 42 -11 19 0 33 4
30 8 -3 5 -1 11 4 14 5 4 8 -2 7 -11 -2 -13 -13 -19 -35 -20 -18 -1 -38 -4
-45 -6 -9 -4 -12 2 -11 16 1 12 3 30 4 40 0 9 8 17 16 17 8 0 15 6 16 13 0 6
2 22 3 35 3 21 2 21 -16 5 -19 -17 -22 -11 -9 22 5 11 4 25 -1 33 -7 8 -7 12
2 12 10 0 10 3 0 15 -6 8 -10 20 -7 27 4 8 6 7 6 -4 1 -10 4 -18 9 -18 12 0
28 14 27 25 0 15 -35 61 -35 47 0 -7 -4 -11 -10 -7 -16 10 1 34 23 33 26 -2
57 -26 57 -43 0 -16 27 -27 35 -15 4 6 12 10 18 9 9 0 9 -2 0 -6 -18 -7 -16
-20 3 -20 12 0 15 8 12 36 -3 20 -8 45 -12 56 -5 13 -2 11 8 -5 8 -14 15 -45
16 -69z m-67 59 c-4 -14 0 -20 12 -20 11 0 15 5 11 16 -3 8 -2 12 4 9 6 -3 10
-15 10 -25 0 -17 -4 -18 -30 -9 -33 12 -32 11 -24 33 9 23 23 20 17 -4z m-258
-40 c11 -17 -5 -32 -21 -19 -7 6 -11 15 -8 20 7 12 21 11 29 -1z m-81 -31 c-3
-5 -10 -7 -15 -3 -5 3 -7 10 -3 15 3 5 10 7 15 3 5 -3 7 -10 3 -15z m516 -147
c14 -10 -26 -19 -44 -9 -12 7 -23 13 -25 14 -1 1 0 6 3 12 6 9 45 -1 66 -17z
m-747 -14 c4 -10 8 -9 16 2 9 13 12 13 28 -3 19 -19 10 -47 -18 -55 -8 -2 -5
2 5 10 13 10 17 21 12 34 -4 11 -10 14 -14 8 -7 -11 -36 -25 -60 -30 -9 -2 -7
5 5 18 18 20 18 21 -7 14 -19 -6 -21 -5 -10 3 20 14 37 14 43 -1z m423 -74
c32 -15 41 -39 17 -48 -20 -8 -15 -44 7 -51 11 -3 20 -13 20 -21 0 -17 16 -19
26 -2 5 7 3 8 -6 3 -8 -5 -11 -3 -8 5 10 31 28 21 28 -15 0 -25 4 -34 12 -29
7 5 8 3 3 -6 -6 -10 -11 -10 -20 3 -7 10 -18 17 -24 17 -7 0 -22 10 -32 23
-15 17 -19 18 -17 5 2 -9 -1 -16 -7 -15 -5 1 -9 6 -7 10 1 5 -8 5 -20 2 -22
-7 -23 -7 -3 8 11 8 20 21 21 29 0 7 2 21 2 31 1 11 7 15 13 11 7 -4 10 -1 7
6 -5 15 -18 22 -65 38 -19 6 -33 6 -33 1 0 -5 0 -12 -1 -16 0 -3 14 -12 31
-19 17 -7 28 -9 25 -4 -3 6 -1 10 5 10 9 0 9 -32 1 -79 -1 -2 -10 4 -21 14
-19 17 -20 17 -20 1 0 -10 5 -14 12 -10 7 4 8 3 4 -4 -12 -20 -24 -13 -56 33
-17 25 -35 43 -40 40 -4 -3 -6 4 -3 15 3 11 10 20 15 20 5 0 7 -4 3 -9 -3 -5
-1 -13 5 -16 6 -4 9 -2 8 3 -2 6 1 9 5 9 5 -1 13 6 18 15 10 19 44 16 95 -8z
m168 -9 c-4 -8 -10 -15 -15 -15 -4 0 -6 7 -3 15 4 8 10 15 15 15 4 0 6 -7 3
-15z m-441 -23 c-7 -4 -17 -19 -23 -32 -10 -24 -10 -24 -4 5 5 29 23 49 33 39
3 -3 0 -8 -6 -12z m374 -89 c-3 -10 -5 -4 -5 12 0 17 2 24 5 18 2 -7 2 -21 0
-30z m303 1 c0 -8 -5 -12 -10 -9 -6 4 -8 11 -5 16 9 14 15 11 15 -7z m-160 -4
c0 -5 -6 -10 -14 -10 -8 0 -18 5 -21 10 -3 6 3 10 14 10 12 0 21 -4 21 -10z
m39 1 c10 -7 11 -12 1 -27 -11 -18 -11 -18 -6 0 5 13 2 17 -9 12 -9 -3 -15 0
-15 9 0 17 9 19 29 6z m290 -29 c0 -14 -2 -13 -8 3 -8 19 -8 19 -15 -2 -4 -13
-12 -23 -17 -23 -10 0 -13 43 -3 53 11 11 44 -13 43 -31z m-324 -14 c6 -4 2
-8 -7 -8 -10 0 -18 7 -18 17 0 9 3 12 8 7 4 -5 12 -12 17 -16z m-35 2 c0 -5
-4 -10 -10 -10 -5 0 -10 5 -10 10 0 6 5 10 10 10 6 0 10 -4 10 -10z m131 1
c-11 -7 -11 -10 3 -14 15 -5 15 -5 0 -3 -24 2 -30 26 -7 26 14 0 15 -2 4 -9z
m269 3 c0 -3 -11 -20 -25 -36 -14 -16 -22 -34 -19 -40 3 -5 -3 -19 -14 -31
-11 -12 -18 -30 -17 -40 2 -10 -3 -21 -10 -23 -7 -3 -16 -16 -19 -30 -6 -23
-26 -34 -26 -14 0 6 5 10 10 10 6 0 10 7 10 15 0 8 -4 15 -9 15 -5 0 -14 -7
-21 -15 -7 -8 -17 -15 -23 -15 -6 0 -1 7 11 16 12 8 22 23 22 32 1 16 1 16 11
0 5 -9 16 -15 24 -12 8 4 12 11 8 18 -11 16 -13 37 -3 31 10 -6 45 33 37 42
-4 3 0 17 8 30 9 13 13 23 9 23 -4 0 -1 7 6 15 12 15 30 20 30 9z m-336 -29
c-6 -16 -24 -21 -24 -7 0 11 11 22 21 22 5 0 6 -7 3 -15z m116 -42 c0 -12 -3
-13 -14 -4 -8 7 -28 16 -46 21 -42 12 -36 -9 11 -32 l34 -17 -28 -1 c-16 0
-30 6 -34 16 -5 15 -7 15 -15 0 -5 -9 -17 -16 -26 -16 -9 0 -23 -9 -30 -20
-19 -31 -31 -16 -29 35 2 50 0 53 -19 28 -10 -14 -15 -15 -25 -6 -10 10 -6 14
15 23 36 13 47 12 70 -5 26 -20 33 -19 41 4 5 17 8 17 50 3 27 -8 45 -20 45
-29z m204 -26 c2 -15 1 -27 -3 -27 -4 0 -8 14 -9 31 -1 37 5 35 12 -4z m-177
-12 c-14 -30 -23 -32 -23 -6 0 11 4 17 8 15 4 -3 8 0 8 5 0 6 4 11 9 11 5 0 4
-11 -2 -25z m243 10 c0 -8 -9 -23 -19 -32 -11 -9 -17 -21 -14 -26 3 -6 1 -7
-5 -3 -6 3 -13 -2 -15 -11 -4 -14 -5 -13 -6 4 0 12 5 26 13 30 7 4 18 18 25
31 14 26 21 28 21 7z m-330 -26 c0 -8 4 -8 15 1 8 6 20 8 26 4 9 -5 5 -10 -11
-16 -26 -10 -63 -1 -55 13 8 13 25 11 25 -2z m-30 -26 c0 -5 -16 -18 -35 -31
-19 -12 -35 -19 -35 -15 1 5 15 18 33 30 38 25 37 25 37 16z m-80 -31 c0 -15
-2 -15 -10 -2 -13 20 -13 33 0 25 6 -3 10 -14 10 -23z m146 12 c-3 -8 -2 -13
3 -10 5 3 14 -1 21 -9 15 -18 7 -19 -21 -5 -20 11 -26 40 -8 40 6 0 8 -7 5
-16z m211 -36 c-3 -7 -5 -2 -5 12 0 14 2 19 5 13 2 -7 2 -19 0 -25z m-20 -30
c-3 -8 -6 -5 -6 6 -1 11 2 17 5 13 3 -3 4 -12 1 -19z m-65 -7 c-8 -4 -13 -19
-12 -32 1 -13 1 -40 0 -59 -2 -26 -5 -20 -10 25 -8 68 -6 75 18 75 13 0 14 -2
4 -9z m-49 -25 c7 4 4 -1 -5 -11 -20 -22 -32 -16 -21 11 4 11 8 13 11 6 2 -7
9 -9 15 -6z m73 -118 c-1 -7 -5 -19 -9 -25 -5 -9 -2 -13 8 -13 12 0 15 -9 13
-40 -1 -22 -5 -40 -9 -40 -4 0 -5 16 -2 37 4 26 3 34 -5 29 -12 -7 -14 -2 -14
34 0 28 1 30 11 30 5 0 8 -6 7 -12z m514 -361 c0 -5 -4 -5 -10 -2 -5 3 -10 14
-10 23 0 15 2 15 10 2 5 -8 10 -19 10 -23z m17 -29 c-3 -7 -5 -2 -5 12 0 14 2
19 5 13 2 -7 2 -19 0 -25z m-28 -11 c0 -21 -1 -21 -9 -2 -12 28 -12 37 0 30 6
-3 10 -16 9 -28z m-15 -48 c-7 -12 -24 -11 -24 2 0 5 5 7 10 4 7 -4 9 3 5 22
-5 26 -5 26 5 5 5 -13 8 -28 4 -33z m-37 -21 c-3 -8 -6 -5 -6 6 -1 11 2 17 5
13 3 -3 4 -12 1 -19z m-601 -67 c-6 -9 -46 -22 -46 -15 0 3 10 9 23 14 29 11
29 11 23 1z"/>
<path d="M2482 4438 c-10 -12 -10 -18 -1 -23 8 -6 7 -10 -2 -17 -11 -8 -11 -9
1 -5 8 2 20 -3 26 -11 9 -13 11 -12 11 2 0 9 -4 16 -8 16 -4 0 -9 12 -11 27
-3 23 -5 24 -16 11z"/>
<path d="M2680 4426 c0 -23 16 -27 17 -5 1 10 -2 19 -8 19 -5 0 -9 -6 -9 -14z"/>
<path d="M2560 4380 c0 -5 4 -10 9 -10 6 0 13 5 16 10 3 6 -1 10 -9 10 -9 0
-16 -4 -16 -10z"/>
<path d="M2926 4392 c-3 -6 -1 -14 5 -17 14 -9 20 -2 10 14 -6 8 -11 9 -15 3z"/>
<path d="M2986 4321 c-3 -5 1 -11 9 -15 8 -3 15 -1 15 4 0 13 -18 22 -24 11z"/>
<path d="M2935 4300 c-3 -5 -1 -18 4 -28 6 -11 7 -23 3 -27 -4 -5 -2 -6 3 -2
6 3 17 2 25 -3 8 -5 21 -5 31 1 25 13 32 -4 9 -23 -13 -12 -17 -24 -12 -40 l7
-23 3 24 c2 13 10 31 18 38 19 19 12 27 -41 54 -24 12 -42 26 -39 31 3 4 3 8
0 8 -3 0 -8 -4 -11 -10z"/>
<path d="M3024 4149 c-3 -6 -1 -16 6 -22 10 -9 14 -9 17 1 4 10 8 10 21 0 12
-10 14 -10 8 -1 -12 21 -44 35 -52 22z"/>
<path d="M3165 4029 c-4 -6 -3 -15 3 -21 6 -6 11 -4 15 6 7 18 -9 31 -18 15z"/>
<path d="M2960 3972 c0 -15 11 -21 27 -15 12 5 12 7 1 14 -17 11 -28 11 -28 1z"/>
<path d="M2726 4072 c-8 -14 14 -28 49 -29 19 -1 23 0 10 4 -11 3 -27 12 -37
20 -9 8 -18 10 -22 5z"/>
<path d="M3090 3865 c0 -8 -6 -12 -13 -9 -8 3 -13 -3 -13 -16 0 -23 11 -27 20
-5 3 8 15 15 27 15 18 0 19 2 9 15 -16 19 -30 19 -30 0z"/>
<path d="M2700 5232 c-18 -6 -45 -32 -33 -32 4 1 19 7 32 14 13 7 32 11 43 8
10 -2 18 0 18 6 0 10 -35 13 -60 4z"/>
<path d="M3257 4888 c-10 -17 -16 -31 -15 -32 2 -1 12 -8 23 -16 19 -14 19
-14 6 3 -12 15 -12 22 -1 42 20 37 8 39 -13 3z"/>
<path d="M3340 4841 c-14 -28 -13 -48 5 -55 15 -5 55 29 55 47 0 5 -10 -2 -21
-17 -28 -36 -50 -19 -25 18 9 15 12 26 7 26 -6 0 -15 -9 -21 -19z"/>
<path d="M3438 4782 c-8 -9 -18 -24 -22 -32 -4 -8 2 -4 13 9 22 24 28 13 11
-20 -13 -23 -2 -24 28 -3 26 18 29 8 5 -18 -9 -10 -14 -21 -11 -24 3 -3 16 9
28 26 25 35 19 51 -10 32 -28 -17 -31 -15 -20 13 11 30 -2 41 -22 17z"/>
<path d="M3530 4679 c-19 -11 -27 -18 -18 -15 19 6 43 -18 33 -34 -3 -5 -2
-10 2 -10 5 0 14 15 21 33 20 55 17 57 -38 26z m30 -9 c0 -5 -4 -10 -10 -10
-5 0 -10 5 -10 10 0 6 5 10 10 10 6 0 10 -4 10 -10z"/>
<path d="M3626 4601 c-10 -11 -25 -17 -34 -14 -14 4 -15 3 -3 -5 16 -12 40 -3
61 22 18 23 -4 20 -24 -3z"/>
<path d="M3665 4546 c-30 -12 -30 -12 -6 -19 16 -4 22 -11 18 -21 -10 -27 9
-18 21 9 22 48 17 52 -33 31z m30 -15 c-3 -6 -11 -8 -17 -5 -6 4 -5 9 3 15 16
10 23 4 14 -10z"/>
<path d="M3734 4465 c-16 -13 -25 -24 -20 -25 5 0 18 8 29 18 19 16 19 16 12
-8 -4 -14 -10 -31 -13 -39 -7 -18 29 1 49 26 13 16 13 17 -4 4 -22 -18 -32 -9
-18 18 16 30 -1 33 -35 6z"/>
<path d="M770 4450 c0 -5 5 -10 10 -10 6 0 10 5 10 10 0 6 -4 10 -10 10 -5 0
-10 -4 -10 -10z"/>
<path d="M2208 4418 c-23 -17 -25 -39 -9 -127 11 -59 11 -79 1 -94 -8 -14 -9
-22 -1 -30 6 -6 11 -23 11 -38 0 -15 6 -32 14 -38 8 -7 18 -27 22 -44 10 -48
65 -127 93 -134 48 -12 72 76 32 116 -11 11 -17 22 -14 24 2 3 -7 13 -20 22
-14 9 -29 30 -32 46 -4 17 -13 33 -19 35 -8 3 -14 27 -15 60 -1 31 -2 59 -2
62 -3 21 3 22 22 1 11 -13 17 -18 13 -10 -3 7 0 18 7 23 11 7 9 8 -5 4 -14 -5
-17 -2 -12 9 3 9 2 13 -3 10 -6 -3 -9 19 -8 52 2 58 2 58 -28 61 -16 2 -38 -3
-47 -10z m37 -237 c-3 -6 -11 -8 -17 -5 -6 4 -5 9 3 15 16 10 23 4 14 -10z
m96 -184 c-10 -9 -11 -8 -5 6 3 10 9 15 12 12 3 -3 0 -11 -7 -18z"/>
<path d="M3806 4374 c-9 -8 -16 -21 -16 -28 0 -21 24 -36 40 -26 13 8 13 11 1
22 -10 10 -12 10 -7 1 4 -8 1 -13 -8 -13 -23 0 -20 27 4 40 17 9 22 7 30 -12
9 -22 9 -22 9 -2 1 12 -6 25 -15 28 -21 8 -20 8 -38 -10z"/>
<path d="M3103 4361 c1 -12 9 -23 18 -26 23 -8 48 -47 57 -90 4 -20 10 -35 15
-35 4 0 17 -9 29 -20 12 -11 23 -18 25 -17 9 10 -22 68 -42 81 -14 9 -22 22
-19 29 3 8 -2 20 -11 27 -8 7 -15 19 -15 26 0 8 -7 14 -16 14 -9 0 -12 5 -8
13 4 6 4 9 -1 5 -4 -4 -14 -3 -21 3 -10 8 -13 6 -11 -10z"/>
<path d="M3070 4333 c0 -17 81 -113 95 -113 12 0 4 35 -16 66 -24 39 -39 44
-33 12 2 -13 -2 -8 -9 11 -15 39 -37 53 -37 24z"/>
<path d="M995 4330 c-3 -5 -1 -10 4 -10 6 0 11 5 11 10 0 6 -2 10 -4 10 -3 0
-8 -4 -11 -10z"/>
<path d="M885 4290 c-3 -5 -1 -10 4 -10 6 0 11 5 11 10 0 6 -2 10 -4 10 -3 0
-8 -4 -11 -10z"/>
<path d="M3220 4290 c0 -5 8 -14 18 -19 9 -6 11 -11 5 -11 -18 0 -16 -20 1
-20 8 0 13 8 11 18 -2 9 -4 20 -4 23 -1 11 -31 19 -31 9z"/>
<path d="M665 4270 c4 -6 11 -8 16 -5 14 9 11 15 -7 15 -8 0 -12 -5 -9 -10z"/>
<path d="M3263 4245 c-12 -14 -17 -27 -12 -31 5 -3 9 -18 9 -34 0 -24 9 -34
58 -64 31 -19 49 -36 40 -36 -22 0 -24 -16 -3 -24 8 -3 16 0 17 7 5 43 4 67
-4 67 -5 0 -7 4 -4 8 3 5 -1 9 -9 9 -8 0 -15 -7 -16 -16 0 -11 -2 -12 -6 -3
-2 6 -8 10 -12 8 -4 -3 -13 11 -20 30 -7 18 -16 34 -21 34 -4 0 -11 8 -14 17
-5 13 0 11 18 -6 15 -14 26 -30 26 -37 0 -7 4 -15 9 -18 4 -3 6 6 3 21 -4 20
-2 24 9 17 7 -4 4 5 -9 20 -12 16 -19 32 -16 37 3 5 -3 6 -12 2 -12 -4 -15 -3
-10 5 12 19 3 13 -21 -13z"/>
<path d="M3908 4224 c-30 -16 -39 -30 -13 -20 20 7 32 -23 14 -35 -23 -15 0
-10 31 6 34 17 40 30 11 20 -23 -7 -39 14 -20 26 24 15 5 18 -23 3z"/>
<path d="M620 4180 c0 -5 5 -10 10 -10 6 0 10 5 10 10 0 6 -4 10 -10 10 -5 0
-10 -4 -10 -10z"/>
<path d="M835 4180 c3 -5 8 -10 11 -10 2 0 4 5 4 10 0 6 -5 10 -11 10 -5 0 -7
-4 -4 -10z"/>
<path d="M740 4150 c0 -5 5 -10 11 -10 5 0 7 5 4 10 -3 6 -8 10 -11 10 -2 0
-4 -4 -4 -10z"/>
<path d="M3963 4122 c-38 -18 -39 -21 -17 -48 15 -18 15 -18 5 3 -13 25 5 45
20 22 7 -11 9 -10 9 4 0 9 3 17 6 17 4 0 13 -8 21 -17 12 -16 13 -15 2 7 -6
14 -12 26 -13 26 0 1 -16 -5 -33 -14z"/>
<path d="M3274 4119 c-3 -6 -1 -16 4 -21 8 -8 11 -5 9 11 -1 24 -3 25 -13 10z"/>
<path d="M655 4110 c3 -5 8 -10 11 -10 2 0 4 5 4 10 0 6 -5 10 -11 10 -5 0 -7
-4 -4 -10z"/>
<path d="M900 4099 c0 -5 5 -7 10 -4 6 3 10 8 10 11 0 2 -4 4 -10 4 -5 0 -10
-5 -10 -11z"/>
<path d="M3296 4095 c-8 -22 9 -44 24 -29 7 7 6 16 -3 28 -13 18 -14 18 -21 1z"/>
<path d="M575 4080 c-3 -5 1 -10 9 -10 9 0 16 5 16 10 0 6 -4 10 -9 10 -6 0
-13 -4 -16 -10z"/>
<path d="M3248 4060 c4 -31 29 -47 46 -30 8 8 4 17 -14 31 -14 12 -18 17 -10
13 8 -4 11 -3 7 1 -18 20 -33 12 -29 -15z"/>
<path d="M790 4070 c0 -5 5 -10 10 -10 6 0 10 5 10 10 0 6 -4 10 -10 10 -5 0
-10 -4 -10 -10z"/>
<path d="M505 4051 c-7 -12 12 -24 25 -16 11 7 4 25 -10 25 -5 0 -11 -4 -15
-9z"/>
<path d="M3999 4027 c-22 -10 -25 -16 -18 -34 8 -22 39 -33 39 -13 0 5 7 7 16
3 12 -4 15 0 12 22 -4 33 -13 38 -49 22z m41 -19 c0 -16 -3 -19 -11 -11 -6 6
-8 16 -5 22 11 17 16 13 16 -11z m-28 -13 c0 -5 -5 -11 -11 -13 -6 -2 -11 4
-11 13 0 9 5 15 11 13 6 -2 11 -8 11 -13z"/>
<path d="M610 4006 c0 -9 7 -16 16 -16 9 0 14 5 12 12 -6 18 -28 21 -28 4z"/>
<path d="M540 3975 c0 -9 5 -15 11 -13 6 2 11 8 11 13 0 5 -5 11 -11 13 -6 2
-11 -4 -11 -13z"/>
<path d="M477 3953 c-12 -11 -8 -23 8 -23 8 0 15 7 15 15 0 16 -12 20 -23 8z"/>
<path d="M750 3945 c0 -8 7 -15 15 -15 8 0 15 7 15 15 0 8 -7 15 -15 15 -8 0
-15 -7 -15 -15z"/>
<path d="M3297 3936 c-3 -8 2 -16 13 -19 23 -6 35 19 14 27 -21 8 -21 8 -27
-8z"/>
<path d="M657 3924 c-9 -10 2 -24 19 -24 8 0 14 7 14 15 0 15 -21 21 -33 9z"/>
<path d="M4038 3913 c18 -2 30 -9 26 -14 -3 -5 -9 -7 -14 -4 -4 3 -10 -4 -13
-15 -5 -21 4 -19 36 8 27 24 20 32 -25 30 -38 -1 -39 -2 -10 -5z"/>
<path d="M580 3884 c0 -17 22 -14 28 4 2 7 -3 12 -12 12 -9 0 -16 -7 -16 -16z"/>
<path d="M504 3869 c-10 -17 13 -36 27 -22 12 12 4 33 -11 33 -5 0 -12 -5 -16
-11z"/>
<path d="M830 3840 c0 -5 7 -10 15 -10 8 0 15 5 15 10 0 6 -7 10 -15 10 -8 0
-15 -4 -15 -10z"/>
<path d="M4111 3833 c-1 -6 -14 -14 -31 -18 -16 -4 -30 -10 -30 -15 0 -5 14
-4 31 2 25 8 33 8 40 -3 11 -18 10 -1 -1 26 -5 11 -9 15 -9 8z"/>
<path d="M725 3821 c-7 -12 12 -24 25 -16 11 7 4 25 -10 25 -5 0 -11 -4 -15
-9z"/>
<path d="M625 3800 c-4 -7 -3 -16 3 -22 14 -14 45 -2 40 15 -6 16 -34 21 -43
7z"/>
<path d="M547 3776 c-8 -19 15 -37 32 -26 17 10 7 40 -13 40 -7 0 -16 -6 -19
-14z"/>
<path d="M474 3755 c-4 -9 -2 -21 4 -27 15 -15 44 -1 40 19 -4 23 -36 29 -44
8z"/>
<path d="M420 3725 c0 -8 7 -15 15 -15 8 0 15 7 15 15 0 8 -7 15 -15 15 -8 0
-15 -7 -15 -15z"/>
<path d="M812 3698 c6 -18 28 -21 28 -4 0 9 -7 16 -16 16 -9 0 -14 -5 -12 -12z"/>
<path d="M705 3690 c-4 -6 -3 -14 0 -20 9 -15 35 -12 35 4 0 17 -27 29 -35 16z"/>
<path d="M610 3660 c0 -15 5 -20 18 -18 9 2 17 10 17 18 0 8 -8 16 -17 18 -13
2 -18 -3 -18 -18z"/>
<path d="M524 3655 c-8 -21 2 -45 19 -45 8 0 20 7 27 15 10 12 10 18 0 30 -7
8 -19 15 -27 15 -7 0 -16 -7 -19 -15z"/>
<path d="M462 3637 c-15 -17 1 -42 23 -33 18 6 17 37 -1 43 -6 2 -16 -2 -22
-10z"/>
<path d="M402 3608 c6 -18 28 -21 28 -4 0 9 -7 16 -16 16 -9 0 -14 -5 -12 -12z"/>
<path d="M940 3560 c0 -5 5 -10 10 -10 6 0 10 5 10 10 0 6 -4 10 -10 10 -5 0
-10 -4 -10 -10z"/>
<path d="M701 3550 c-17 -10 -7 -40 13 -40 7 0 16 6 19 14 8 19 -15 37 -32 26z"/>
<path d="M810 3545 c0 -9 5 -15 11 -13 6 2 11 8 11 13 0 5 -5 11 -11 13 -6 2
-11 -4 -11 -13z"/>
<path d="M599 3534 c-11 -14 -10 -18 6 -30 16 -12 21 -12 34 0 12 12 12 18 1
30 -16 20 -24 20 -41 0z"/>
<path d="M514 3525 c-9 -23 3 -45 25 -45 23 0 35 28 20 46 -15 18 -38 18 -45
-1z"/>
<path d="M444 3515 c-4 -11 -11 -12 -24 -5 -22 12 -45 -11 -36 -35 7 -20 33
-19 44 1 6 11 11 13 16 5 10 -16 46 -14 52 4 7 18 -13 45 -33 45 -7 0 -16 -7
-19 -15z"/>
<path d="M814 3399 c-10 -17 13 -36 27 -22 12 12 4 33 -11 33 -5 0 -12 -5 -16
-11z"/>
<path d="M950 3395 c0 -9 5 -15 11 -13 6 2 11 8 11 13 0 5 -5 11 -11 13 -6 2
-11 -4 -11 -13z"/>
<path d="M445 3390 c-3 -5 -19 -7 -35 -3 -26 5 -30 2 -30 -16 0 -26 25 -38 44
-22 10 8 16 9 21 1 18 -30 62 1 49 35 -7 17 -40 20 -49 5z"/>
<path d="M517 3393 c-13 -12 -7 -41 10 -47 21 -8 48 17 40 38 -6 16 -38 22
-50 9z"/>
<path d="M600 3380 c0 -13 7 -20 20 -20 13 0 20 7 20 20 0 13 -7 20 -20 20
-13 0 -20 -7 -20 -20z"/>
<path d="M705 3389 c-10 -15 1 -23 20 -15 9 3 13 10 10 16 -8 13 -22 13 -30
-1z"/>
<path d="M373 3266 c-42 -15 -50 -24 -27 -32 10 -3 28 -9 39 -14 11 -4 42 -8
68 -9 47 -1 48 0 45 27 -2 22 -8 27 -33 28 -16 1 -37 3 -45 6 -8 3 -29 0 -47
-6z"/>
<path d="M523 3244 c-3 -8 -1 -20 5 -26 16 -16 42 -2 42 22 0 24 -38 28 -47 4z"/>
<path d="M621 3251 c-17 -11 -7 -41 13 -41 22 0 30 20 15 36 -9 8 -19 10 -28
5z"/>
<path d="M714 3239 c-9 -15 11 -33 30 -26 9 4 13 13 10 22 -7 17 -30 20 -40 4z"/>
<path d="M837 3234 c-9 -10 2 -24 19 -24 8 0 14 7 14 15 0 15 -21 21 -33 9z"/>
<path d="M980 3225 c0 -9 5 -15 11 -13 6 2 11 8 11 13 0 5 -5 11 -11 13 -6 2
-11 -4 -11 -13z"/>
<path d="M1145 3220 c-3 -5 -1 -10 4 -10 6 0 11 5 11 10 0 6 -2 10 -4 10 -3 0
-8 -4 -11 -10z"/>
<path d="M340 3145 c-18 -22 -1 -50 31 -51 13 0 32 -4 42 -9 11 -4 23 -3 30 4
8 8 15 6 29 -6 14 -13 20 -13 33 -3 34 28 5 71 -35 50 -13 -7 -19 -6 -24 5 -3
8 -17 14 -33 13 -15 -1 -35 2 -44 6 -10 4 -21 1 -29 -9z"/>
<path d="M553 3123 c-18 -6 -16 -50 1 -56 8 -3 22 1 33 8 28 21 -1 62 -34 48z"/>
<path d="M643 3094 c-8 -21 13 -42 28 -27 13 13 5 43 -11 43 -6 0 -13 -7 -17
-16z"/>
<path d="M749 3084 c-9 -11 -9 -18 -1 -26 14 -14 42 -3 42 16 0 20 -27 27 -41
10z"/>
<path d="M874 3069 c-10 -17 13 -36 27 -22 12 12 4 33 -11 33 -5 0 -12 -5 -16
-11z"/>
<path d="M1027 3054 c-8 -8 1 -24 14 -24 5 0 9 7 9 15 0 15 -12 20 -23 9z"/>
<path d="M364 3009 c-8 -14 11 -33 25 -25 6 4 11 14 11 22 0 16 -26 19 -36 3z"/>
<path d="M417 3013 c-26 -25 13 -69 45 -52 14 7 20 6 24 -6 9 -22 51 -19 59 5
9 29 -4 42 -36 38 -17 -3 -34 1 -40 9 -12 14 -41 17 -52 6z"/>
<path d="M2640 2835 c0 -121 -3 -163 -15 -186 -9 -16 -14 -33 -11 -38 3 -4
-18 -9 -47 -11 -73 -4 -80 -4 -99 4 -13 6 -15 3 -11 -15 5 -16 3 -20 -6 -15
-7 5 -10 10 -7 14 3 3 -2 11 -12 19 -16 12 -15 13 3 7 16 -6 17 -4 8 6 -7 8
-17 9 -27 3 -28 -15 45 -80 99 -89 54 -8 114 4 94 18 -11 7 -9 9 7 5 30 -6 68
29 88 81 12 32 16 78 16 197 l0 155 -40 0 -40 0 0 -155z m56 114 c3 -6 1 -16
-5 -22 -6 -6 -12 -49 -12 -96 -2 -105 -7 -88 -12 37 -2 69 0 92 9 92 7 0 16
-5 20 -11z m-5 -293 c5 3 9 0 9 -6 0 -7 -7 -9 -16 -6 -11 4 -14 1 -10 -12 4
-12 -2 -26 -15 -38 -22 -19 -22 -19 -10 3 16 31 14 35 -11 28 -21 -5 -20 -3 7
21 17 16 31 22 33 15 2 -6 8 -9 13 -5z m-122 -83 c-12 -14 -12 -16 2 -11 10 4
16 1 16 -8 0 -8 -4 -14 -7 -14 -12 0 -30 26 -23 33 9 9 -7 8 -32 -3 -17 -7
-17 -9 -2 -9 9 -1 17 -5 17 -10 0 -8 -55 4 -69 15 -5 4 61 22 88 23 21 1 22
-1 10 -16z m56 7 c-3 -5 -11 -10 -16 -10 -6 0 -7 5 -4 10 3 6 11 10 16 10 6 0
7 -4 4 -10z"/>
<path d="M2886 2841 c-42 -83 -74 -157 -70 -163 4 -7 3 -8 -4 -4 -7 4 -24 -19
-46 -62 l-34 -68 42 -3 c39 -2 43 1 59 34 l17 35 113 0 113 0 17 -35 c15 -31
21 -35 57 -35 22 0 40 3 40 6 0 3 -26 55 -57 114 -48 92 -59 107 -72 97 -12
-10 -13 -9 -4 7 9 16 5 31 -15 72 -14 29 -30 50 -35 47 -6 -3 -7 -1 -3 5 4 6
-4 32 -17 58 l-24 47 -77 -152z m127 14 c-3 -9 -8 -14 -10 -11 -3 3 -2 9 2 15
9 16 15 13 8 -4z m-85 -50 c-3 -3 -9 2 -12 12 -6 14 -5 15 5 6 7 -7 10 -15 7
-18z m48 3 c3 -10 10 -15 16 -12 6 4 8 2 5 -3 -9 -14 13 -74 24 -67 5 3 6 -1
3 -9 -3 -8 0 -18 5 -22 24 -14 0 -20 -68 -17 l-70 4 30 60 c17 33 28 66 26 72
-3 7 1 13 9 13 7 0 16 -9 20 -19z m-63 -33 c-3 -9 -8 -14 -10 -11 -3 3 -2 9 2
15 9 16 15 13 8 -4z m124 -14 c0 -11 -5 -18 -9 -15 -4 3 -5 11 -1 19 7 21 12
19 10 -4z m30 -107 c-3 -3 -12 -4 -19 -1 -8 3 -5 6 6 6 11 1 17 -2 13 -5z m40
-66 c-3 -7 -5 -2 -5 12 0 14 2 19 5 13 2 -7 2 -19 0 -25z"/>
<path d="M3602 2822 c3 -166 3 -169 31 -211 40 -59 99 -85 183 -78 72 5 111
25 144 75 24 34 25 44 28 209 l3 173 -40 0 -41 0 0 -152 c0 -133 -3 -157 -19
-184 -38 -63 -134 -66 -181 -7 -18 23 -20 40 -20 184 l0 159 -46 0 -46 0 4
-168z"/>
<path d="M574 2965 c-8 -19 3 -35 26 -35 19 0 30 17 23 38 -6 17 -42 15 -49
-3z"/>
<path d="M674 2945 c-4 -9 -2 -21 4 -27 15 -15 44 -1 40 19 -4 23 -36 29 -44
8z"/>
<path d="M790 2915 c0 -8 9 -15 20 -15 11 0 20 7 20 15 0 8 -9 15 -20 15 -11
0 -20 -7 -20 -15z"/>
<path d="M381 2891 c-13 -24 9 -46 38 -38 12 3 22 -1 25 -9 7 -19 40 -18 56 1
17 21 -6 48 -36 42 -14 -2 -25 2 -28 9 -8 20 -44 17 -55 -5z"/>
<path d="M930 2895 c0 -8 7 -15 15 -15 8 0 15 7 15 15 0 8 -7 15 -15 15 -8 0
-15 -7 -15 -15z"/>
<path d="M530 2855 c-18 -21 -5 -47 22 -43 26 3 37 36 16 49 -18 12 -24 11
-38 -6z"/>
<path d="M1280 2850 c0 -5 5 -10 10 -10 6 0 10 5 10 10 0 6 -4 10 -10 10 -5 0
-10 -4 -10 -10z"/>
<path d="M613 2824 c-3 -8 2 -23 11 -32 15 -15 17 -15 32 0 21 21 11 48 -16
48 -11 0 -23 -7 -27 -16z"/>
<path d="M723 2794 c-3 -8 -1 -20 6 -27 14 -14 47 15 37 32 -10 16 -36 13 -43
-5z"/>
<path d="M420 2760 c0 -13 7 -20 20 -20 13 0 20 7 20 20 0 13 -7 20 -20 20
-13 0 -20 -7 -20 -20z"/>
<path d="M845 2770 c-9 -15 4 -30 26 -30 12 0 19 7 19 20 0 21 -33 29 -45 10z"/>
<path d="M483 2744 c-8 -20 21 -49 41 -41 9 4 16 18 16 32 0 20 -5 25 -25 25
-14 0 -28 -7 -32 -16z"/>
<path d="M1006 2743 c-11 -11 -6 -23 9 -23 8 0 15 4 15 9 0 13 -16 22 -24 14z"/>
<path d="M570 2726 c-27 -33 18 -72 48 -42 13 13 14 20 6 34 -15 23 -38 26
-54 8z"/>
<path d="M666 2683 c-10 -26 23 -48 42 -29 8 8 12 22 9 30 -8 21 -43 20 -51
-1z"/>
<path d="M787 2664 c-12 -12 -8 -42 6 -47 21 -8 39 8 35 29 -3 19 -29 30 -41
18z"/>
<path d="M476 2653 c-11 -11 -6 -23 9 -23 8 0 15 4 15 9 0 13 -16 22 -24 14z"/>
<path d="M2460 2640 c-9 -6 -6 -12 14 -25 33 -22 40 -17 17 12 -11 13 -22 18
-31 13z"/>
<path d="M532 2628 c-16 -16 -15 -23 4 -42 19 -20 29 -20 48 0 12 12 13 20 6
35 -12 21 -40 25 -58 7z"/>
<path d="M922 2608 c2 -13 10 -23 18 -23 8 0 16 10 18 23 3 17 -2 22 -18 22
-16 0 -21 -5 -18 -22z"/>
<path d="M638 2602 c-22 -4 -24 -48 -3 -56 22 -8 45 4 45 24 0 22 -20 38 -42
32z"/>
<path d="M731 2557 c-17 -21 -3 -49 23 -45 15 2 21 10 21 28 0 28 -26 38 -44
17z"/>
<path d="M504 2535 c-4 -9 0 -23 8 -31 20 -20 50 -7 46 20 -4 26 -45 35 -54
11z"/>
<path d="M1270 2540 c0 -5 7 -10 15 -10 8 0 15 5 15 10 0 6 -7 10 -15 10 -8 0
-15 -4 -15 -10z"/>
<path d="M2960 2535 c-15 -18 -6 -45 15 -45 18 0 20 17 3 23 -10 3 -10 7 1 20
7 10 9 17 3 17 -5 0 -15 -7 -22 -15z"/>
<path d="M859 2514 c-11 -14 -11 -18 6 -30 22 -16 39 -5 33 22 -4 24 -22 28
-39 8z"/>
<path d="M587 2514 c-25 -25 8 -70 43 -59 32 10 24 59 -10 63 -14 2 -29 0 -33
-4z"/>
<path d="M3039 2492 c-3 -20 -2 -29 4 -23 5 5 7 19 5 32 -3 20 -5 19 -9 -9z"/>
<path d="M1004 2475 c-4 -9 -2 -21 4 -27 15 -15 44 -1 40 19 -4 23 -36 29 -44
8z"/>
<path d="M2660 2475 c-10 -12 -41 -15 -156 -15 l-144 0 0 -44 c0 -24 -3 -53
-6 -63 -5 -13 -2 -12 10 5 15 19 26 22 87 22 38 0 69 -3 69 -6 0 -4 -15 -25
-33 -48 -39 -49 -57 -104 -57 -176 0 -52 0 -53 20 -35 13 12 31 16 60 13 33
-3 39 -1 34 12 -17 37 -15 72 5 113 12 24 21 48 21 54 0 5 22 41 48 79 44 63
67 104 58 104 -2 0 -9 -7 -16 -15z"/>
<path d="M691 2466 c-17 -20 -2 -48 23 -44 24 3 34 37 14 49 -18 12 -24 11
-37 -5z"/>
<path d="M2795 2461 c-70 -17 -112 -59 -131 -132 -13 -50 -13 -54 14 -103 46
-86 152 -120 249 -81 47 20 68 48 75 101 5 39 4 42 -35 68 -48 30 -119 35
-155 10 -25 -17 -30 -65 -8 -83 11 -9 14 -8 12 6 -2 27 69 31 83 5 16 -30 -18
-56 -63 -48 -45 9 -76 47 -76 96 0 70 77 108 155 76 21 -9 39 -15 39 -14 1 2
11 17 23 34 l21 31 -66 22 c-70 22 -87 24 -137 12z"/>
<path d="M3145 2456 c-22 -8 -52 -20 -67 -28 l-27 -15 29 -22 c17 -12 30 -31
30 -42 0 -18 3 -17 26 11 24 28 32 31 73 28 38 -3 46 -6 46 -23 0 -16 -8 -21
-42 -23 -43 -3 -43 -3 -43 -42 l0 -39 53 -3 c44 -3 52 -6 52 -22 0 -42 -105
-39 -151 5 l-25 23 -35 -36 -36 -36 66 -32 c61 -30 71 -32 140 -28 81 5 120
23 138 63 11 24 3 96 -10 93 -4 -1 -17 2 -30 6 l-23 8 26 30 c29 34 29 34 14
75 -8 24 -20 34 -61 47 -59 19 -89 19 -143 2z"/>
<path d="M810 2425 c-7 -8 -10 -22 -6 -30 7 -20 42 -19 50 1 8 22 8 22 -13 33
-14 8 -22 7 -31 -4z"/>
<path d="M1180 2425 c0 -8 7 -15 15 -15 8 0 15 7 15 15 0 8 -7 15 -15 15 -8 0
-15 -7 -15 -15z"/>
<path d="M567 2416 c-7 -18 1 -26 25 -26 11 0 18 7 18 20 0 23 -35 28 -43 6z"/>
<path d="M1386 2402 c-3 -6 -1 -14 5 -17 15 -10 25 3 12 16 -7 7 -13 7 -17 1z"/>
<path d="M654 2386 c-10 -26 4 -48 28 -44 17 2 23 10 23 28 0 18 -6 26 -23 28
-13 2 -25 -3 -28 -12z"/>
<path d="M937 2377 c-8 -21 8 -39 29 -35 27 5 25 42 -2 46 -12 2 -24 -3 -27
-11z"/>
<path d="M3017 2373 c-13 -13 -7 -21 13 -16 13 3 20 0 20 -8 0 -10 3 -10 11
-2 6 6 8 16 5 22 -8 12 -39 15 -49 4z"/>
<path d="M762 2328 c2 -15 10 -23 23 -23 13 0 21 8 23 23 3 18 -1 22 -23 22
-22 0 -26 -4 -23 -22z"/>
<path d="M2407 2329 c4 -12 0 -25 -8 -30 -8 -5 -9 -9 -3 -9 18 0 37 28 30 45
-8 23 -25 18 -19 -6z"/>
<path d="M1102 2328 c3 -7 13 -15 22 -16 12 -3 17 1 14 10 -3 7 -13 15 -22 16
-12 3 -17 -1 -14 -10z"/>
<path d="M637 2313 c-14 -13 -6 -33 13 -33 13 0 20 7 20 20 0 19 -20 27 -33
13z"/>
<path d="M883 2294 c-3 -8 2 -23 11 -32 15 -15 17 -15 32 0 21 21 11 48 -16
48 -11 0 -23 -7 -27 -16z"/>
<path d="M1292 2289 c2 -6 8 -10 13 -10 5 0 11 4 13 10 2 6 -4 11 -13 11 -9 0
-15 -5 -13 -11z"/>
<path d="M724 2276 c-11 -29 1 -51 26 -51 19 0 26 6 28 24 5 35 -42 58 -54 27z"/>
<path d="M1510 2260 c0 -5 5 -10 10 -10 6 0 10 5 10 10 0 6 -4 10 -10 10 -5 0
-10 -4 -10 -10z"/>
<path d="M1035 2250 c-4 -7 -3 -16 3 -22 14 -14 45 -2 40 15 -6 16 -34 21 -43
7z"/>
<path d="M852 2231 c-20 -12 -10 -46 13 -46 14 0 20 7 20 24 0 27 -13 35 -33
22z"/>
<path d="M1206 2205 c-6 -17 16 -31 33 -21 13 9 2 36 -14 36 -7 0 -16 -7 -19
-15z"/>
<path d="M710 2190 c0 -5 5 -10 10 -10 6 0 10 5 10 10 0 6 -4 10 -10 10 -5 0
-10 -4 -10 -10z"/>
<path d="M974 2175 c-4 -9 -2 -21 4 -27 16 -16 47 -5 47 17 0 26 -42 34 -51
10z"/>
<path d="M807 2173 c-4 -3 -7 -17 -7 -30 0 -13 -6 -23 -14 -23 -19 0 -29 -30
-15 -47 18 -21 53 -12 57 15 2 13 10 26 18 29 19 7 18 49 -2 57 -20 8 -29 8
-37 -1z"/>
<path d="M1410 2165 c0 -9 5 -15 11 -13 6 2 11 8 11 13 0 5 -5 11 -11 13 -6 2
-11 -4 -11 -13z"/>
<path d="M1137 2144 c-13 -13 -7 -42 10 -48 21 -8 36 6 31 30 -3 19 -29 30
-41 18z"/>
<path d="M1640 2139 c0 -5 5 -7 10 -4 6 3 10 8 10 11 0 2 -4 4 -10 4 -5 0 -10
-5 -10 -11z"/>
<path d="M927 2116 c-4 -9 -4 -23 -1 -31 4 -10 0 -15 -15 -15 -12 0 -25 -8
-28 -17 -4 -10 -16 -26 -28 -35 -16 -13 -18 -20 -9 -35 15 -25 58 -24 62 2 3
11 10 24 18 28 8 4 14 18 14 31 0 16 7 26 21 29 15 4 20 12 17 29 -4 27 -42
37 -51 14z"/>
<path d="M1323 2094 c-7 -19 11 -39 26 -30 16 10 13 33 -4 40 -9 3 -18 -1 -22
-10z"/>
<path d="M1074 2065 c-4 -9 -2 -21 4 -27 16 -16 47 -5 47 17 0 26 -42 34 -51
10z"/>
<path d="M1536 2061 c-4 -5 -2 -12 3 -15 5 -4 12 -2 15 3 4 5 2 12 -3 15 -5 4
-12 2 -15 -3z"/>
<path d="M1770 2040 c0 -5 5 -10 10 -10 6 0 10 5 10 10 0 6 -4 10 -10 10 -5 0
-10 -4 -10 -10z"/>
<path d="M1244 2025 c-4 -9 -2 -21 4 -27 15 -15 44 -1 40 19 -4 23 -36 29 -44
8z"/>
<path d="M1027 2023 c-4 -3 -7 -15 -7 -25 0 -11 -7 -18 -20 -18 -11 0 -24 -8
-27 -17 -4 -10 -16 -26 -28 -35 -16 -13 -18 -20 -9 -35 15 -25 47 -23 59 5 5
12 15 22 21 22 14 0 26 28 18 41 -3 5 4 9 14 9 11 0 23 7 26 16 11 28 -27 57
-47 37z"/>
<path d="M1440 1980 c0 -15 5 -20 18 -18 9 2 17 10 17 18 0 8 -8 16 -17 18
-13 2 -18 -3 -18 -18z"/>
<path d="M1174 1965 c-4 -9 -2 -21 4 -27 16 -16 47 -5 47 17 0 26 -42 34 -51
10z"/>
<path d="M1662 1966 c1 -10 8 -17 13 -17 15 1 12 24 -3 29 -9 3 -13 -2 -10
-12z"/>
<path d="M1905 1960 c-3 -5 -1 -10 4 -10 6 0 11 5 11 10 0 6 -2 10 -4 10 -3 0
-8 -4 -11 -10z"/>
<path d="M1364 1935 c-18 -13 -18 -15 -2 -31 19 -19 38 -11 38 16 0 26 -14 32
-36 15z"/>
<path d="M1122 1928 c-7 -7 -12 -18 -12 -25 0 -7 -7 -13 -15 -13 -8 0 -19 -9
-25 -20 -6 -11 -17 -20 -24 -20 -19 0 -29 -30 -15 -46 16 -20 47 -17 54 5 3
10 15 21 25 24 11 3 20 12 20 20 0 9 10 17 23 19 14 2 23 11 25 27 5 35 -31
54 -56 29z"/>
<path d="M1573 1913 c-22 -8 -15 -43 7 -43 13 0 20 7 20 19 0 22 -9 30 -27 24z"/>
<path d="M1284 1875 c-4 -9 -2 -21 4 -27 16 -16 47 -5 47 17 0 26 -42 34 -51
10z"/>
<path d="M1790 1880 c0 -5 7 -10 15 -10 8 0 15 5 15 10 0 6 -7 10 -15 10 -8 0
-15 -4 -15 -10z"/>
<path d="M1477 1854 c-4 -4 -7 -16 -7 -26 0 -13 7 -18 26 -18 21 0 25 4 22 22
-3 23 -27 35 -41 22z"/>
<path d="M1223 1831 c-3 -12 -13 -21 -23 -21 -10 0 -23 -7 -30 -15 -7 -8 -18
-15 -26 -15 -20 0 -34 -32 -23 -53 12 -21 48 -22 56 -1 3 8 16 20 29 25 13 4
24 15 24 23 0 8 10 16 23 18 32 4 31 52 -1 56 -17 3 -25 -2 -29 -17z"/>
<path d="M1691 1826 c-12 -14 -5 -26 16 -26 15 0 18 26 4 34 -5 3 -14 0 -20
-8z"/>
<path d="M1920 1816 c0 -9 7 -16 16 -16 17 0 14 22 -4 28 -7 2 -12 -3 -12 -12z"/>
<path d="M1401 1811 c-9 -6 -11 -18 -7 -36 5 -20 12 -26 29 -23 17 2 22 10 22
33 0 31 -19 42 -44 26z"/>
<path d="M1603 1783 c-7 -3 -13 -13 -13 -23 0 -19 17 -30 38 -23 6 3 12 13 12
23 0 19 -17 30 -37 23z"/>
<path d="M1328 1761 c-7 -12 -20 -21 -29 -21 -27 0 -42 -25 -29 -49 14 -27 50
-27 57 -1 4 13 14 20 29 20 28 0 42 25 27 49 -15 24 -40 25 -55 2z"/>
<path d="M1817 1763 c-12 -11 -8 -23 8 -23 8 0 15 7 15 15 0 16 -12 20 -23 8z"/>
<path d="M2050 1760 c0 -5 5 -10 10 -10 6 0 10 5 10 10 0 6 -4 10 -10 10 -5 0
-10 -4 -10 -10z"/>
<path d="M1517 1734 c-4 -4 -7 -16 -7 -26 0 -13 7 -18 26 -18 21 0 25 4 22 22
-3 23 -27 35 -41 22z"/>
<path d="M1717 1706 c-7 -16 1 -26 20 -26 7 0 13 9 13 20 0 23 -25 27 -33 6z"/>
<path d="M1936 1712 c-2 -4 -1 -14 4 -22 7 -11 12 -12 21 -3 6 6 8 16 5 22 -8
13 -23 14 -30 3z"/>
<path d="M1442 1698 c-6 -6 -12 -17 -12 -24 0 -7 -10 -9 -25 -6 -29 5 -44 -20
-25 -43 18 -21 41 -19 47 5 4 15 11 18 27 14 30 -7 54 21 39 44 -13 22 -35 26
-51 10z"/>
<path d="M1626 1664 c-4 -10 -2 -22 3 -27 15 -15 46 -3 46 18 0 26 -40 33 -49
9z"/>
<path d="M1834 1655 c-4 -9 -2 -21 4 -27 15 -15 44 -1 40 19 -4 23 -36 29 -44
8z"/>
<path d="M2062 1658 c6 -18 28 -21 28 -4 0 9 -7 16 -16 16 -9 0 -14 -5 -12
-12z"/>
<path d="M1563 1643 c-7 -2 -13 -16 -13 -29 0 -19 5 -24 24 -24 30 0 40 24 20
45 -9 8 -16 15 -17 14 -1 0 -8 -3 -14 -6z"/>
<path d="M1954 1615 c-7 -18 3 -35 21 -35 15 0 28 27 19 41 -8 14 -34 11 -40
-6z"/>
<path d="M1335 1610 c3 -5 10 -10 16 -10 5 0 9 5 9 10 0 6 -7 10 -16 10 -8 0
-12 -4 -9 -10z"/>
<path d="M1747 1613 c-3 -5 -2 -15 3 -22 10 -17 43 -6 38 12 -6 15 -34 22 -41
10z"/>
<path d="M1487 1603 c-13 -12 -7 -41 10 -47 21 -8 48 17 40 38 -6 16 -38 22
-50 9z"/>
<path d="M1667 1576 c-8 -20 20 -43 35 -28 14 14 3 42 -16 42 -7 0 -16 -6 -19
-14z"/>
<path d="M1864 1569 c-3 -6 -2 -15 4 -21 13 -13 32 -2 32 18 0 16 -26 19 -36
3z"/>
<path d="M1586 1545 c-3 -8 2 -21 10 -29 20 -20 44 -9 44 20 0 19 -5 24 -24
24 -13 0 -26 -7 -30 -15z"/>
<path d="M1983 1553 c-18 -7 -16 -40 3 -47 21 -8 34 1 34 24 0 19 -17 30 -37
23z m16 -32 c-15 -5 -22 6 -14 19 6 9 10 9 16 -1 5 -8 4 -15 -2 -18z"/>
<path d="M1774 1535 c-4 -9 -2 -21 4 -27 15 -15 44 -1 40 19 -4 23 -36 29 -44
8z"/>
<path d="M1694 1506 c-10 -26 4 -48 28 -44 17 2 23 10 23 28 0 18 -6 26 -23
28 -13 2 -25 -3 -28 -12z"/>
<path d="M1886 1495 c-3 -9 1 -18 10 -22 19 -7 39 11 30 26 -10 16 -33 13 -40
-4z"/>
<path d="M1802 1458 c2 -15 10 -23 23 -23 13 0 21 8 23 23 3 18 -1 22 -23 22
-22 0 -26 -4 -23 -22z"/>
<path d="M1910 1440 c0 -7 7 -10 15 -6 8 3 15 1 15 -4 0 -5 -8 -11 -17 -13
-13 -3 -12 -5 5 -6 17 -1 23 4 20 16 -4 20 -38 31 -38 13z"/>
</g>
</svg>
